<svg version="1.1" xmlns="http://www.w3.org/2000/svg" viewBox="0 0 370.40008544921875 359.2000274658203" width="370.40008544921875" height="359.2000274658203">
  <!-- svg-source:excalidraw -->
  
  <defs>
    <style class="style-fonts">
      @font-face {
        font-family: "Virgil";
        src: url("https://excalidraw.com/Virgil.woff2");
      }
      @font-face {
        font-family: "Cascadia";
        src: url("https://excalidraw.com/Cascadia.woff2");
      }
    </style>
  </defs>
  <rect x="0" y="0" width="370.40008544921875" height="359.2000274658203" fill="#ffffff"/><g stroke-linecap="round" transform="translate(10 10) rotate(0 175.20004272460938 169.60001373291016)"><path d="M220 42.5 M220 42.5 C249.67 74.15, 280.79 103.09, 306.4 127.5 M220 42.5 C254.33 74.37, 288.98 108.9, 306.4 127.5 M306.4 127.5 C350.29 168.13, 351.08 170.09, 306.4 212.5 M306.4 127.5 C351.43 172.03, 350.79 168.64, 306.4 212.5 M306.4 212.5 C270.63 246.88, 235.28 279.46, 220 296.7 M306.4 212.5 C273.62 245.03, 241.7 276.95, 220 296.7 M220 296.7 C177.44 337.72, 177.44 338.13, 132 296.7 M220 296.7 C174.09 337.91, 174.53 339.49, 132 296.7 M132 296.7 C111.41 277.75, 88.89 257.34, 44 212.5 M132 296.7 C109.45 275.97, 86.65 254.01, 44 212.5 M44 212.5 C1.01 171.81, 0.45 168.27, 44 127.5 M44 212.5 C1.25 169.5, 1.32 167.72, 44 127.5 M44 127.5 C74.46 97.72, 105.62 66.55, 132 42.5 M44 127.5 C64.72 106.74, 83.86 87.91, 132 42.5 M132 42.5 C175.81 -1.46, 176.94 1.36, 220 42.5 M132 42.5 C177.57 -0.13, 178 -1.09, 220 42.5" stroke="#000000" stroke-width="1" fill="none"/></g></svg>